<?xml version="1.0" standalone="no"?>
<!DOCTYPE svg PUBLIC "-//W3C//DTD SVG 20010904//EN"
 "http://www.w3.org/TR/2001/REC-SVG-20010904/DTD/svg10.dtd">
<svg version="1.0" xmlns="http://www.w3.org/2000/svg"
 width="3349.000000pt" height="3349.000000pt" viewBox="0 0 3349.000000 3349.000000"
 preserveAspectRatio="xMidYMid meet">
<metadata>
Created by potrace 1.14, written by Peter Selinger 2001-2017
</metadata>
<g transform="translate(0.000000,3349.000000) scale(0.100000,-0.100000)"
fill="#000000" stroke="none">
<path d="M10005 28239 c-1113 -105 -2163 -668 -2861 -1535 -180 -224 -332
-462 -466 -727 -214 -428 -338 -843 -405 -1352 -17 -134 -18 -451 -18 -7990 0
-7539 1 -7856 18 -7990 69 -527 200 -952 432 -1402 585 -1134 1712 -1953 2980
-2166 270 -46 353 -52 700 -52 284 1 353 4 495 23 493 67 914 198 1345 417
226 115 13749 7926 13924 8042 545 362 975 849 1265 1433 206 415 318 795 378
1280 21 167 17 701 -5 875 -94 725 -360 1358 -801 1910 -106 132 -353 384
-491 500 -131 110 -312 243 -433 318 -257 159 -13705 7916 -13857 7993 -455
230 -928 368 -1435 419 -166 16 -607 19 -765 4z m1649 -2843 c634 -164 962
-874 676 -1461 -22 -44 -72 -134 -111 -200 -88 -148 -261 -491 -364 -725 -523
-1181 -858 -2570 -960 -3975 -52 -722 -44 -1503 21 -2100 182 -1667 921 -3339
2169 -4905 562 -706 1264 -1420 1880 -1912 266 -213 295 -238 361 -321 77 -97
153 -246 190 -372 38 -128 45 -347 16 -486 -40 -195 -128 -361 -268 -508 -178
-187 -392 -292 -653 -321 -181 -20 -384 17 -559 101 -254 123 -1092 853 -1658
1446 -2182 2285 -3405 4827 -3588 7453 -143 2039 166 4190 871 6078 250 670
596 1398 838 1762 166 250 405 410 695 465 116 22 319 13 444 -19z m4876
-3911 c413 -62 738 -347 854 -748 35 -119 48 -259 36 -377 -13 -120 -36 -205
-104 -378 -297 -755 -419 -1763 -320 -2652 102 -920 404 -1731 883 -2375 134
-179 252 -314 422 -480 304 -297 586 -497 949 -673 123 -60 187 -98 250 -149
241 -194 375 -459 387 -766 9 -200 -25 -357 -113 -527 -134 -259 -357 -440
-649 -526 -108 -32 -328 -44 -441 -25 -376 65 -1090 493 -1640 984 -1041 929
-1726 2163 -2019 3642 -105 531 -148 974 -148 1535 0 441 21 737 84 1175 112
781 383 1670 592 1943 230 298 611 453 977 397z m6013 -1855 c157 -31 274 -71
432 -150 389 -193 687 -535 823 -945 288 -866 -177 -1800 -1037 -2085 -433
-144 -858 -113 -1266 90 -157 78 -285 171 -416 300 -258 255 -407 544 -471
915 -27 156 -21 436 11 583 155 702 695 1206 1401 1308 135 19 384 12 523 -16z"/>
</g>
</svg>
